# xmcd
#
# Track frame offsets:
#	150
#	10883
#	26978
#	42796
#	55261
#	77769
#	87684
#	104979
#	119529
#	135467
#	149830
#
# Disc length: 2162 seconds
#
# Revision: 1
# Processed by: cddbd v1.5.2PL0 Copyright (c) Steve Scherf et al.
# Submitted via: audiograbber 1.83.01
#
DISCID=a508700b
DTITLE=The Original Texas Playboys - Live and Kickin'
DYEAR=1978
DGENRE=Country
TTITLE0=Big Ball's In Cowtown
TTITLE1=Oklahoma Twister
TTITLE2=Texas Blues
TTITLE3=Texas Fiddle
TTITLE4=Faded Love
TTITLE5=Fiddle Tune
TTITLE6=Marie
TTITLE7=Steel Guitar Rag
TTITLE8=Your Sweet Love Keeps Me Homeward Bound
TTITLE9=Dusty Skies
TTITLE10=Stay All Night, Stay A Little Longer
EXTD=
EXTT0=
EXTT1=
EXTT2=
EXTT3=
EXTT4=
EXTT5=
EXTT6=
EXTT7=
EXTT8=
EXTT9=
EXTT10=
PLAYORDER=
